<?xml version="1.0" standalone="no"?>
<!DOCTYPE svg PUBLIC "-//W3C//DTD SVG 20010904//EN"
 "http://www.w3.org/TR/2001/REC-SVG-20010904/DTD/svg10.dtd">
<svg version="1.0" xmlns="http://www.w3.org/2000/svg"
 width="803.000000pt" height="1280.000000pt" viewBox="0 0 803.000000 1280.000000"
 preserveAspectRatio="xMidYMid meet">
<metadata>
Created by potrace 1.15, written by Peter Selinger 2001-2017
</metadata>
<g transform="translate(0.000000,1280.000000) scale(0.100000,-0.100000)"
fill="#000000" stroke="none">
<path d="M5165 12780 c-389 -86 -764 -262 -1229 -575 -150 -101 -254 -175
-584 -416 -443 -324 -935 -563 -1342 -654 -181 -41 -229 -60 -318 -127 -107
-82 -179 -205 -281 -478 -100 -267 -167 -387 -271 -484 -31 -29 -67 -77 -89
-120 -87 -169 -206 -305 -502 -578 -295 -271 -404 -396 -488 -557 -55 -106
-65 -194 -57 -491 6 -232 20 -385 67 -720 96 -694 109 -831 109 -1210 0 -277
7 -352 41 -485 37 -143 69 -227 149 -390 86 -176 142 -271 335 -570 338 -525
454 -767 550 -1145 50 -198 82 -397 107 -670 15 -172 15 -836 -1 -1147 -9
-184 -9 -246 0 -295 24 -118 15 -403 -20 -708 -50 -431 -44 -650 26 -862 22
-67 29 -78 56 -87 80 -28 121 -2 197 128 121 208 173 437 173 756 -1 248 -20
383 -108 775 -21 94 -29 367 -16 580 43 740 43 731 31 904 -6 93 -16 192 -21
220 -5 28 -16 117 -24 199 -41 421 -136 646 -541 1283 -299 471 -429 712 -487
904 -85 282 -104 463 -119 1170 -16 782 -16 779 -50 1030 -40 302 -44 558 -10
681 58 212 156 331 418 505 290 192 679 345 1189 469 191 46 226 54 380 89 93
21 179 47 226 69 97 45 210 83 329 110 140 32 400 31 518 -1 151 -41 256 -98
361 -197 130 -122 200 -260 271 -535 28 -107 71 -268 96 -358 113 -413 164
-652 189 -885 23 -221 23 -223 -36 -340 -175 -350 -431 -615 -734 -763 -60
-29 -146 -63 -190 -75 -44 -11 -106 -32 -139 -46 -32 -14 -94 -32 -139 -41
-74 -14 -89 -14 -174 0 -267 46 -495 258 -511 478 -8 119 47 225 157 300 48
34 63 38 139 44 204 17 274 90 239 250 -8 41 -41 141 -73 222 -54 142 -57 154
-64 269 -7 134 -23 178 -66 189 -39 10 -94 -21 -229 -129 -164 -133 -203 -160
-275 -196 -83 -41 -148 -47 -224 -20 -148 52 -276 5 -276 -101 0 -85 65 -160
197 -227 114 -57 176 -109 208 -176 38 -77 32 -146 -29 -332 -25 -79 -49 -169
-52 -202 -7 -59 -6 -60 33 -105 79 -90 81 -183 9 -399 -52 -158 -58 -219 -25
-261 44 -56 147 -84 225 -60 102 32 282 64 420 75 301 24 657 -36 953 -162
123 -52 199 -94 336 -184 61 -39 133 -85 160 -100 131 -74 249 -228 405 -525
50 -96 116 -211 145 -255 64 -97 172 -203 241 -238 l51 -26 7 61 c3 34 6 129
6 212 0 309 53 498 176 627 33 34 70 88 93 135 71 144 149 218 393 372 192
122 269 189 330 287 49 79 61 124 62 235 2 92 5 111 29 156 38 74 127 149 272
229 136 75 197 120 220 166 31 60 10 156 -52 238 l-26 34 31 126 c18 69 37
161 43 204 30 202 -63 333 -268 377 -42 9 -60 22 -121 83 -39 40 -78 89 -87
110 -15 36 -15 38 8 61 33 33 113 40 351 32 232 -9 356 3 430 40 181 92 295
103 358 37 47 -51 52 -87 56 -383 1 -151 4 -324 4 -385 3 -185 -36 -320 -194
-675 -185 -414 -214 -512 -228 -745 -22 -355 -41 -627 -51 -715 -57 -520 -220
-799 -576 -985 -138 -71 -228 -184 -259 -324 -23 -101 -14 -222 32 -481 31
-172 37 -229 38 -350 1 -159 -15 -235 -74 -350 -15 -30 -47 -95 -71 -145 -53
-113 -124 -187 -223 -234 -234 -112 -527 21 -606 277 -32 102 -34 168 -10 296
28 147 25 234 -10 271 -55 59 -183 17 -309 -100 -127 -119 -184 -219 -205
-364 -27 -178 -108 -256 -370 -357 -158 -61 -208 -87 -258 -132 -49 -44 -68
-85 -68 -145 0 -42 2 -46 58 -85 72 -50 205 -188 255 -265 149 -226 207 -551
156 -875 -9 -60 -8 -65 24 -135 39 -82 83 -129 122 -129 103 -1 209 298 234
662 11 164 31 235 87 317 42 61 83 94 162 131 51 24 68 27 162 26 84 0 117 -5
165 -24 189 -72 333 -238 365 -420 6 -36 18 -94 27 -130 8 -36 35 -153 58
-260 50 -228 76 -321 117 -410 57 -128 114 -153 188 -83 63 60 65 85 65 763 1
412 4 607 13 658 33 196 56 275 152 507 63 153 105 328 165 692 65 393 83 480
135 634 59 177 100 251 194 349 190 198 314 452 370 760 40 217 51 355 77 995
5 149 17 308 25 355 22 126 89 315 209 590 123 280 175 420 213 570 27 105 27
105 24 443 -4 446 9 565 122 1167 74 396 95 553 103 780 6 195 -13 428 -49
580 -109 460 -558 762 -1218 820 -63 5 -152 10 -197 10 l-81 0 -48 53 c-78 86
-165 229 -295 482 -150 294 -228 417 -328 515 -128 126 -255 179 -441 186 -89
3 -135 -1 -205 -16z m318 -426 c31 -5 49 -19 113 -91 352 -396 559 -892 515
-1236 -7 -51 -19 -117 -28 -147 -17 -62 -81 -190 -116 -234 l-23 -28 -60 30
c-65 33 -135 102 -177 172 -38 67 -62 133 -122 342 -80 275 -142 393 -245 464
-23 16 -67 50 -98 76 -119 99 -255 148 -414 148 -115 0 -188 -11 -443 -70
-231 -53 -348 -74 -383 -68 -19 2 -5 17 85 88 363 288 665 452 974 529 147 37
283 45 422 25z m-609 -869 c185 -48 319 -181 438 -432 62 -131 268 -740 274
-808 26 -307 30 -329 104 -685 27 -129 56 -289 66 -355 19 -140 20 -387 2
-485 -13 -63 -14 -65 -46 -68 -50 -5 -125 25 -175 68 -100 88 -159 260 -227
665 -22 124 -45 216 -109 430 -16 55 -55 189 -85 298 -89 314 -161 492 -261
642 -135 204 -327 315 -541 315 -165 0 -565 -112 -1093 -307 -340 -125 -717
-261 -786 -283 -38 -13 -100 -38 -136 -56 -109 -56 -196 -55 -248 0 -45 48
-40 154 11 212 49 55 96 74 211 84 125 11 232 48 857 292 724 284 1060 395
1415 468 112 23 252 25 329 5z m2096 -289 c303 -50 599 -270 690 -512 41 -110
63 -348 49 -529 -37 -496 -295 -873 -674 -983 -168 -49 -230 -57 -465 -57
l-225 0 -67 33 c-157 77 -259 267 -257 478 1 149 52 250 152 298 79 39 154 38
272 -2 359 -123 695 -150 851 -69 42 22 90 76 110 122 22 52 22 180 -1 260 -9
33 -25 96 -36 140 -40 161 -119 243 -279 289 -30 9 -116 25 -190 36 -74 11
-162 27 -194 35 -118 31 -194 90 -232 180 -14 34 -14 39 7 81 28 59 102 133
161 162 52 25 152 50 208 51 19 1 73 -5 120 -13z m-2696 -476 c279 -71 496
-327 564 -665 6 -27 14 -95 17 -150 8 -113 28 -198 121 -493 136 -433 168
-585 168 -802 0 -126 -4 -171 -22 -242 -26 -105 -66 -197 -126 -287 -49 -73
-76 -91 -137 -91 -108 0 -158 91 -219 395 -40 197 -45 216 -90 315 -55 124
-93 244 -161 509 -126 490 -202 662 -363 822 -150 150 -294 201 -571 202 -258
0 -441 -40 -955 -213 -388 -129 -487 -157 -719 -201 -175 -33 -198 -35 -246
-15 -30 13 -35 20 -35 49 0 69 94 170 215 229 79 39 96 42 340 43 207 1 242 4
350 27 231 50 364 98 930 333 88 36 210 84 271 105 61 21 138 51 170 68 162
81 339 103 498 62z m2563 -235 c135 -31 246 -109 273 -190 17 -52 7 -131 -24
-194 -24 -47 -29 -51 -61 -51 -47 0 -200 34 -366 80 -75 21 -164 44 -197 50
-55 11 -63 16 -93 57 -46 65 -51 127 -14 171 76 91 282 123 482 77z"/>
</g>
</svg>
